<svg id="Layer_1" data-name="Layer 1" xmlns="http://www.w3.org/2000/svg" viewBox="0 0 26.67 26.67"><defs><style>.cls-1{fill:#6034bb;}.cls-2{fill:#fff;}</style></defs><title>calculator</title><circle class="cls-1" cx="13.33" cy="13.33" r="13.33"/><g id="O4X4i1"><path class="cls-2" d="M19,13.33c0,1.14,0,2.28,0,3.42a1.22,1.22,0,0,1-1.34,1.34H11.1a2.65,2.65,0,0,1-2-.82c-1-1-2-2-3-3a1.24,1.24,0,0,1,0-1.86c1-1.05,2.08-2.1,3.13-3.13a2.38,2.38,0,0,1,1.69-.7h6.76A1.2,1.2,0,0,1,19,9.88C19,11,19,12.18,19,13.33Zm-.8,0V10c0-.46-.14-.59-.58-.59H11a1.78,1.78,0,0,0-1.32.56l-3,3c-.34.34-.34.51,0,.85l2.94,3a1.87,1.87,0,0,0,1.38.58h6.48c.46,0,.6-.14.6-.61Z"/><path class="cls-2" d="M13.42,13.34l-1.76-1.75a.42.42,0,0,1-.05-.62c.15-.18.41-.15.64.06l0,.05,1.44,1.44.26.24,1.58-1.6.17-.16a.39.39,0,0,1,.61,0,.4.4,0,0,1,0,.59l-1.49,1.48-.27.29c.58.57,1.15,1.13,1.7,1.7a.66.66,0,0,1,.17.49c-.06.32-.45.36-.73.09L14.09,14,14,13.9c-.36.37-.71.74-1.07,1.1l-.53.54c-.31.3-.54.35-.73.16s-.14-.45.15-.73.71-.72,1.07-1.07Z"/></g></svg>