<svg id="Layer_1" data-name="Layer 1" xmlns="http://www.w3.org/2000/svg" viewBox="0 0 26.67 26.67"><defs><style>.cls-1{fill:#6034bb;}.cls-2{fill:#fff;}</style></defs><title>calculator</title><circle class="cls-1" cx="13.33" cy="13.33" r="13.33"/><g id="qropaa.tif"><path class="cls-2" d="M8.9,12.24l1.7-.94.26-.14a.61.61,0,0,1,.8.23.6.6,0,0,1-.23.8L9.8,13.1l-1.28.72a.61.61,0,0,1-.91-.23c-.54-1-1.08-1.93-1.61-2.9a.59.59,0,0,1,.21-.86.6.6,0,0,1,.82.29l.8,1.44.23-.62A6.58,6.58,0,1,1,9,17.39a.61.61,0,0,1,0-.91c.28-.22.6-.15.88.17A5.4,5.4,0,1,0,9,11.87C9,12,8.94,12.08,8.9,12.24Z"/><path class="cls-2" d="M13.59,11.59V10c0-.43.23-.69.59-.7s.59.26.59.69c0,.95,0,1.9,0,2.84a.67.67,0,0,0,.18.43c.75.78,1.53,1.54,2.29,2.31a.57.57,0,0,1,.11.77.51.51,0,0,1-.63.25.71.71,0,0,1-.3-.18c-.88-.86-1.76-1.72-2.61-2.61a1.07,1.07,0,0,1-.22-.64C13.57,12.64,13.59,12.12,13.59,11.59Z"/></g></svg>